<?xml version="1.0" encoding="UTF-8"?>
<svg version="1.1" xmlns="http://www.w3.org/2000/svg" width="303" height="48">
<path d="M0 0 C7.734375 -0.1546875 7.734375 -0.1546875 15.625 -0.3125 C17.24100098 -0.35802002 18.85700195 -0.40354004 20.52197266 -0.45043945 C21.8063623 -0.46292725 23.09075195 -0.47541504 24.4140625 -0.48828125 C26.37786865 -0.52755737 26.37786865 -0.52755737 28.38134766 -0.56762695 C33.13508101 0.17805042 34.67223256 1.58403197 38 5 C39.37473284 9.12419852 39.22391707 12.99251509 39.25 17.3125 C39.270625 18.15490234 39.29125 18.99730469 39.3125 19.86523438 C39.34431579 24.95178342 39.07462164 28.73040987 36 33 C31.4815824 35.78113686 28.11651094 36.36046809 22.8515625 36.29296875 C21.64838379 36.28547607 20.44520508 36.2779834 19.20556641 36.27026367 C17.69397949 36.24295166 16.18239258 36.21563965 14.625 36.1875 C9.79875 36.125625 4.9725 36.06375 0 36 C0 24.12 0 12.24 0 0 Z M6 7 C6 14.26 6 21.52 6 29 C9.77125953 29.08074862 13.54079993 29.1403818 17.3125 29.1875 C18.9202832 29.22520508 18.9202832 29.22520508 20.56054688 29.26367188 C21.58857422 29.27333984 22.61660156 29.28300781 23.67578125 29.29296875 C24.62364502 29.3086792 25.57150879 29.32438965 26.5480957 29.34057617 C29.0276474 29.18648411 29.0276474 29.18648411 30.81005859 27.72802734 C32.91643289 24.66916045 32.38676243 21.01694936 32.3125 17.4375 C32.31572266 16.65697266 32.31894531 15.87644531 32.32226562 15.07226562 C32.449445 10.56081698 32.449445 10.56081698 30 7 C27.47622345 6.72191783 27.47622345 6.72191783 24.5546875 6.8046875 C22.94013672 6.81435547 22.94013672 6.81435547 21.29296875 6.82421875 C20.16503906 6.84097656 19.03710938 6.85773437 17.875 6.875 C16.17150391 6.88853516 16.17150391 6.88853516 14.43359375 6.90234375 C11.62230663 6.92596801 8.81112738 6.9618399 6 7 Z " fill="#FFFFFF" transform="translate(95,6)"/>
<path d="M0 0 C12.87 0 25.74 0 39 0 C39 2.31 39 4.62 39 7 C28.44 7 17.88 7 7 7 C7 14.26 7 21.52 7 29 C17.56 29 28.12 29 39 29 C39 31.31 39 33.62 39 36 C26.13 36 13.26 36 0 36 C0 24.12 0 12.24 0 0 Z " fill="#FFFFFF" transform="translate(145,6)"/>
<path d="M0 0 C1.18916016 -0.020625 2.37832031 -0.04125 3.60351562 -0.0625 C4.75142578 -0.06765625 5.89933594 -0.0728125 7.08203125 -0.078125 C8.13237549 -0.0874707 9.18271973 -0.09681641 10.26489258 -0.10644531 C13.61609133 0.3022716 15.47444049 1.27653743 18.1875 3.25 C20.22421629 6.25658118 20.1875 7.44096596 20.1875 11.25 C17.8775 11.25 15.5675 11.25 13.1875 11.25 C12.8575 9.93 12.5275 8.61 12.1875 7.25 C4.5975 7.58 -2.9925 7.91 -10.8125 8.25 C-10.833125 11.364375 -10.85375 14.47875 -10.875 17.6875 C-10.884104 18.67032959 -10.89320801 19.65315918 -10.90258789 20.66577148 C-10.90508545 21.43477783 -10.90758301 22.20378418 -10.91015625 22.99609375 C-10.91539307 23.78685303 -10.92062988 24.5776123 -10.92602539 25.39233398 C-11.01745909 27.26592689 -11.01745909 27.26592689 -9.8125 28.25 C-6.34116703 28.52834768 -2.85617496 28.48176202 0.625 28.5 C1.60533203 28.520625 2.58566406 28.54125 3.59570312 28.5625 C5.00045898 28.57023437 5.00045898 28.57023437 6.43359375 28.578125 C7.29654053 28.5874707 8.1594873 28.59681641 9.04858398 28.60644531 C10.10734741 28.43000488 10.10734741 28.43000488 11.1875 28.25 C11.8475 27.26 12.5075 26.27 13.1875 25.25 C16.8125 25.0625 16.8125 25.0625 20.1875 25.25 C19.86781467 28.76653861 19.56507864 30.78431968 17.3125 33.5625 C12.50882392 37.37718394 6.65111323 36.47130903 0.8125 36.5 C-0.2290625 36.520625 -1.270625 36.54125 -2.34375 36.5625 C-12.01137548 36.61195077 -12.01137548 36.61195077 -15.8125 33.25 C-20.01420618 28.56093448 -19.2909559 23.8255713 -19.25 17.8125 C-19.26998047 16.77544922 -19.28996094 15.73839844 -19.31054688 14.66992188 C-19.30566526 7.06924167 -19.30566526 7.06924167 -16.91015625 3.08984375 C-12.06531606 -1.15954122 -6.1541046 0.02642664 0 0 Z " fill="#FFFFFF" transform="translate(19.8125,5.75)"/>
<path d="M0 0 C3.14799723 1.31676927 5.43485625 2.86971251 7 6 C7.63767878 10.43476608 8.24785732 15.04411078 5.75390625 18.953125 C1.49876669 22.84466141 -3.48966524 24.57555972 -9 26 C-9 26.66 -9 27.32 -9 28 C-3.72 28 1.56 28 7 28 C7 30.64 7 33.28 7 36 C-1.25 36 -9.5 36 -18 36 C-18 25 -18 25 -16.625 22.125 C-12.7352635 18.97616569 -7.17264179 15 -2 15 C-2 12.69 -2 10.38 -2 8 C-4.37374861 7.66574265 -4.37374861 7.66574265 -7 8 C-7.6496875 8.99 -7.6496875 8.99 -8.3125 10 C-10 12 -10 12 -11.9609375 12.265625 C-13.97585501 12.25148523 -15.98935106 12.13184583 -18 12 C-17.82977281 7.65920659 -17.38777751 5.47961956 -14.625 2.0625 C-10.24861582 -1.12993484 -5.1553181 -0.84902123 0 0 Z " fill="#A32684" transform="translate(277,6)"/>
<path d="M0 0 C3.74030185 1.60298651 4.73158465 2.59737698 7 6 C7.66373536 10.55353331 7.65925607 14.65152168 5.625 18.8125 C1.77473517 22.02105402 -3.81527685 26 -9 26 C-9 26.66 -9 27.32 -9 28 C-3.72 28 1.56 28 7 28 C7 30.64 7 33.28 7 36 C-1.25 36 -9.5 36 -18 36 C-18 25 -18 25 -16.625 22.125 C-12.7352635 18.97616569 -7.17264179 15 -2 15 C-2 12.69 -2 10.38 -2 8 C-4.31 8 -6.62 8 -9 8 C-9.33 9.32 -9.66 10.64 -10 12 C-12.64 12 -15.28 12 -18 12 C-17.50958904 5.62465753 -17.50958904 5.62465753 -15.0625 2.625 C-10.48554962 -0.98108212 -5.62849079 -0.46361846 0 0 Z " fill="#A32684" transform="translate(225,6)"/>
<path d="M0 0 C4.95 0 9.9 0 15 0 C15 11.55 15 23.1 15 35 C12.03 35 9.06 35 6 35 C6 25.76 6 16.52 6 7 C4.02 7 2.04 7 0 7 C0 4.69 0 2.38 0 0 Z " fill="#A32684" transform="translate(237,7)"/>
<path d="M0 0 C2.64 0 5.28 0 8 0 C9.57139781 2.71305364 11.10144303 5.44733799 12.625 8.1875 C13.29402344 9.34088867 13.29402344 9.34088867 13.9765625 10.51757812 C17.13967565 16.27543254 17.13967565 16.27543254 16.5 19.59375 C16.005 20.3878125 15.51 21.181875 15 22 C14.43023437 23.17175781 13.86046875 24.34351563 13.2734375 25.55078125 C12.64268135 26.80572317 12.00983 28.05961397 11.375 29.3125 C11.05015625 29.95767578 10.7253125 30.60285156 10.390625 31.26757812 C9.59558044 32.84597541 8.79804366 34.42311694 8 36 C5.36 36 2.72 36 0 36 C1.15962261 31.70939633 2.9883834 28.28485152 5.25 24.5 C7.55419973 20.48770007 7.55419973 20.48770007 7.75 16 C6.88375 14.515 6.88375 14.515 6 13 C4.9550295 11.08513259 3.91366291 9.1682961 2.875 7.25 C2.33617188 6.30640625 1.79734375 5.3628125 1.2421875 4.390625 C0 2 0 2 0 0 Z " fill="#A32684" transform="translate(69,6)"/>
<path d="M0 0 C2.64 0 5.28 0 8 0 C7.05810439 3.24430709 6.11033784 5.83666146 4.2109375 8.6484375 C2.05842669 11.84514504 0.79237597 14.20671076 0 18 C1.1375171 22.64159278 3.59938017 26.66109268 6.0390625 30.7265625 C8 34 8 34 8 36 C5.36 36 2.72 36 0 36 C-9.74302952 21.17557187 -9.74302952 21.17557187 -8.54296875 14.43164062 C-6.50374498 9.10700078 -3.40318936 4.54340322 0 0 Z " fill="#A32684" transform="translate(55,6)"/>
<path d="M0 0 C8.58 0 17.16 0 26 0 C26 2.31 26 4.62 26 7 C17.42 7 8.84 7 0 7 C0 4.69 0 2.38 0 0 Z " fill="#FFFFFF" transform="translate(157,20)"/>
<path d="M0 0 C2.31 0 4.62 0 7 0 C11.02417962 6.96027634 11.02417962 6.96027634 10.9375 10.6875 C10.628125 11.450625 10.31875 12.21375 10 13 C9.62875 13.928125 9.2575 14.85625 8.875 15.8125 C7 18 7 18 3.3125 18.3125 C2.219375 18.209375 1.12625 18.10625 0 18 C0.515625 16.96875 1.03125 15.9375 1.5625 14.875 C3.58204119 10.15003571 2.68764351 6.86068245 0.9375 2.125 C0.628125 1.42375 0.31875 0.7225 0 0 Z " fill="#A32684" transform="translate(291,29)"/>
<path d="M0 0 C0.928125 0.103125 1.85625 0.20625 2.8125 0.3125 C2.3403247 3.06685594 1.84543908 5.24826879 0.5625 7.75 C-0.52628038 10.45917167 -0.52628038 10.45917167 1.1875 13.5 C1.72375 14.428125 2.26 15.35625 2.8125 16.3125 C2.8125 16.9725 2.8125 17.6325 2.8125 18.3125 C0.0625 18.6875 0.0625 18.6875 -3.1875 18.3125 C-6.28965601 15.05125907 -7.20436546 13.27383121 -7.125 8.75 C-4.86881868 0.47733516 -4.86881868 0.47733516 0 0 Z " fill="#A32684" transform="translate(197.1875,-0.3125)"/>
<path d="M0 0 C1.67542976 0.28604898 3.34385343 0.61781233 5 1 C5 2.65 5 4.3 5 6 C2.625 6.625 2.625 6.625 0 7 C-0.66 6.34 -1.32 5.68 -2 5 C-1.46428571 1.46428571 -1.46428571 1.46428571 0 0 Z " fill="#A32684" transform="translate(292,6)"/>
</svg>
